<svg id="Icons" height="512" viewBox="0 0 60 60" width="512" xmlns="http://www.w3.org/2000/svg"><path d="m30 6a24 24 0 1 0 24 24 24.028 24.028 0 0 0 -24-24zm-18 28a1 1 0 0 1 -2 0v-6a1 1 0 0 1 -.707-1.707l1-1a1 1 0 0 1 1.707.707zm5-5a3 3 0 1 1 -2.6 4.5 1 1 0 0 1 1.731-1 1 1 0 1 0 .869-1.5h-1a2 2 0 0 1 -2-2v-2a2 2 0 0 1 2-2h3a1 1 0 0 1 0 2h-3v2zm13 9a8 8 0 1 1 8-8 8.009 8.009 0 0 1 -8 8zm14.8-5.6a1 1 0 1 1 -1.6 1.2l-1.2-1.6v1a1 1 0 0 1 -2 0v-7a1 1 0 0 1 2 0v.586l1.293-1.293a1 1 0 0 1 1.414 1.414l-2.387 2.387zm5.2-7.4a2 2 0 0 1 2 2 1 1 0 0 1 -2 0h-2v5h2v-1a1 1 0 0 1 0-2h1a1 1 0 0 1 1 1v2a2 2 0 0 1 -2 2h-2a2 2 0 0 1 -2-2v-5a2 2 0 0 1 2-2z"/><path d="m30 24a6 6 0 1 0 6 6 6.006 6.006 0 0 0 -6-6zm0 10a4 4 0 1 1 4-4 4 4 0 0 1 -4 4z"/><path d="m30 2a28 28 0 1 0 28 28 28.032 28.032 0 0 0 -28-28zm0 54a26 26 0 1 1 26-26 26.029 26.029 0 0 1 -26 26z"/></svg>