<svg id="Layer_1" enable-background="new 0 0 496.366 496.366" height="512" viewBox="0 0 496.366 496.366" width="512" xmlns="http://www.w3.org/2000/svg"><path d="m334.868 15.898c-180.539-67.31-366.941 89.188-330.037 279.907 35.986 185.676 259.856 263.964 403.904 141.672 144.719-122.889 102.973-355.704-73.867-421.579zm-86.569 204.463c15.439 0 28 12.561 28 28s-12.561 28-28 28-28-12.561-28-28 12.56-28 28-28zm-175.795 23.401c-3.17-63.305 30.523-121.069 84.299-150.341 21.921-11.933 50.813.148 55.475 27.602 3.195 19.017 3.857 38.457 1.969 57.788-2.684 27.504-16.879 52.832-38.947 69.487-15.511 11.699-32.439 21.276-50.318 28.469-25.76 10.324-51.222-7.96-52.478-33.005zm258.511 160.158c-50.424 31.779-114.983 31.796-165.434 0-20.716-13.057-24.089-43.339-3.072-60.354 14.421-11.603 30.378-21.276 47.432-28.756 24.375-10.696 52.338-10.696 76.716.001 17.397 7.63 33.328 17.364 48.045 29.253 19.584 15.875 17.66 46.401-3.687 59.856zm93.088-167.626c-.592 11.801-6.886 22.659-16.836 29.048-11.229 7.207-25.549 7.155-33.991 2.934-16.984-6.832-33.064-15.929-47.793-27.039-21.071-15.904-34.623-40.084-37.185-66.342-1.793-18.363-1.165-36.829 1.869-54.883 4.521-26.511 32.429-38.338 53.744-26.733 51.171 27.852 83.204 82.806 80.192 143.015z"/></svg>