<svg id="Glyph" height="512" viewBox="0 0 48 48" width="512" xmlns="http://www.w3.org/2000/svg"><g><path d="m44.54999 39.75c1.44-2.33002 2.20001-5 2.20001-7.75 0-8.06-6.51001-14.64001-14.54999-14.73999-.60999 7.95996-6.98004 14.32996-14.94 14.94.09998 8.03998 6.67999 14.54999 14.73999 14.54999 2.64001 0 5.21997-.70001 7.47998-2.04004 0 0 5.36005 1.02002 5.38 1.03003.48999.08997 1-.35999.87-.91003zm-7.2619-1.05762c-.36359.15118-.82043-.01996-.98047-.40381l-1.47437-3.53857h-5.6665l-1.47437 3.53857c-.16016.38281-.60352.56006-.98047.40381-.38281-.15918-.56348-.59863-.4043-.98096l5-12c.23242-.55859 1.15234-.55859 1.38477 0l5 12c.15918.38227-.02142.82166-.40429.98096z"/><path d="m29.79175 33.25h4.4165l-2.20825-5.2998z"/><path d="m18.07123 13.75h-4.14246c.28748 1.1272.87683 2.65271 2.07123 4.11005 1.1944-1.45734 1.78375-2.98285 2.07123-4.11005z"/><path d="m2.26953 28.83014c-.12231.52472.33911 1.0083.87109.90668.00006 0 5.375-1.02686 5.375-1.02686 2.2627 1.33545 4.84376 2.04004 7.48438 2.04004 8.13281 0 14.75-6.6167 14.75-14.75s-6.61719-14.75-14.75-14.75-14.75 6.6167-14.75 14.75c0 2.74854.76074 5.4209 2.20215 7.75 0 0-1.18262 5.08008-1.18262 5.08014zm8.73047-16.58014h4.25v-2.25c0-.41406.33594-.75.75-.75s.75.33594.75.75v2.25h4.25c.41406 0 .75.33594.75.75s-.33594.75-.75.75h-1.38361c-.29913 1.33966-1.00073 3.33472-2.5813 5.2027 1.47644 1.34082 3.05634 2.0058 4.17194 2.3266.39844.11426.62793.52979.51367.92773-.11328.39349-.53424.62726-.92773.51367-1.28101-.36792-3.09784-1.13446-4.79297-2.68377-1.69513 1.54932-3.51196 2.31586-4.79297 2.68378-.39032.11267-.81519-.12158-.92773-.51379-.1142-.39789.11523-.81335.51367-.92761 1.1156-.3208 2.6955-.98578 4.17194-2.3266-1.58057-1.86798-2.28217-3.86304-2.5813-5.2027h-1.38361c-.41406 0-.75-.33594-.75-.75s.33594-.75001.75-.75001z"/><path d="m27.52539 3.03955c7.01404 1.18347 12.91766 5.79419 15.81976 12.20801l-.7934-.38428c-.37402-.18164-.82227-.02344-1.00195.34814-.18066.37256-.02441.82129.34766 1.00146 0 0 2.54181 1.2309 2.54395 1.23193.36798.17816.8252.02045 1.00195-.34814l1.23145-2.54639c.18066-.37305.02441-.82129-.34863-1.00195-.37109-.18018-.82129-.02344-1.00098.34863l-.48669 1.00598c-3.06007-7.00993-9.45313-12.05864-17.06312-13.34288-.40039-.06494-.7959.20557-.86426.61475-.06933.40869.20606.7954.61426.86474z"/><path d="m20.47461 44.96045c-7.01404-1.18347-12.91766-5.79419-15.81976-12.20801l.7934.38428c.37598.18359.82227.0249 1.00195-.34814.18066-.37256.02441-.82129-.34766-1.00146 0 0-2.53912-1.22961-2.54395-1.23193-.36884-.17865-.82446-.02203-1.00195.34814l-1.23144 2.54638c-.18066.37305-.02441.82129.34875 1.00201.34033.16528.86084.03638 1.00085-.34869l.48669-1.00598c3.06006 7.00995 9.45312 12.05865 17.06311 13.3429.40369.06567.79559-.21021.86426-.61475.06934-.4087-.20605-.79541-.61425-.86475z"/></g></svg>