<?xml version="1.0" encoding="UTF-8" standalone="no"?>
<!-- Created with Inkscape (http://www.inkscape.org/) -->

<svg
   version="1.1"
   id="svg3486"
   xml:space="preserve"
   width="682.66669"
   height="682.66669"
   viewBox="0 0 682.66669 682.66669"
   xmlns="http://www.w3.org/2000/svg"
   xmlns:svg="http://www.w3.org/2000/svg"><defs
     id="defs3490"><clipPath
       clipPathUnits="userSpaceOnUse"
       id="clipPath3500"><path
         d="M 0,512 H 512 V 0 H 0 Z"
         id="path3498" /></clipPath></defs><g
     id="g3492"
     transform="matrix(1.3333333,0,0,-1.3333333,0,682.66667)"><g
       id="g3494"><g
         id="g3496"
         clip-path="url(#clipPath3500)"><g
           id="g3502"
           transform="translate(256.415,256.9111)"><path
             d="m 0,0 c 66.328,25.003 143.015,20.646 208.622,-18.491 9.969,-5.947 19.354,-12.5 28.133,-19.585"
             style="fill:none;stroke:#000000;stroke-width:30;stroke-linecap:round;stroke-linejoin:round;stroke-miterlimit:10;stroke-dasharray:none;stroke-opacity:1"
             id="path3504" /></g><g
           id="g3506"
           transform="translate(194.3667,134.541)"><path
             d="m 0,0 c -25.262,23.006 -48.784,50.001 -69.495,80.594 -35.712,52.752 -58.384,109.291 -68.2,163.77"
             style="fill:none;stroke:#000000;stroke-width:30;stroke-linecap:round;stroke-linejoin:round;stroke-miterlimit:10;stroke-dasharray:none;stroke-opacity:1"
             id="path3508" /></g><g
           id="g3510"
           transform="translate(395.0396,266.0742)"><path
             d="m 0,0 c -6.607,-35.594 -18.096,-71.901 -34.727,-107.569 -26.92,-57.736 -63.787,-106.229 -105.49,-142.632"
             style="fill:none;stroke:#000000;stroke-width:30;stroke-linecap:round;stroke-linejoin:round;stroke-miterlimit:10;stroke-dasharray:none;stroke-opacity:1"
             id="path3512" /></g><g
           id="g3514"
           transform="translate(256.356,256.9463)"><path
             d="m 0,0 c -4.298,-31.01 -14.746,-61.688 -31.793,-90.266 -27.969,-46.885 -69.356,-80.831 -116.337,-99.857"
             style="fill:none;stroke:#000000;stroke-width:30;stroke-linecap:round;stroke-linejoin:round;stroke-miterlimit:10;stroke-dasharray:none;stroke-opacity:1"
             id="path3516" /></g><g
           id="g3518"
           transform="translate(256,256)"><path
             d="m 0,0 c -55.453,44.153 -90.997,112.245 -90.997,188.639 0,11.608 0.821,23.025 2.407,34.195"
             style="fill:none;stroke:#000000;stroke-width:30;stroke-linecap:round;stroke-linejoin:round;stroke-miterlimit:10;stroke-dasharray:none;stroke-opacity:1"
             id="path3520" /></g><g
           id="g3522"
           transform="translate(177.1128,370.3574)"><path
             d="M 0,0 C 33.953,12.561 71.02,21.295 110.172,25.284 173.547,31.743 234.08,24.925 286.708,7.759"
             style="fill:none;stroke:#000000;stroke-width:30;stroke-linecap:round;stroke-linejoin:round;stroke-miterlimit:10;stroke-dasharray:none;stroke-opacity:1"
             id="path3524" /></g><g
           id="g3526"
           transform="translate(497,256)"><path
             d="m 0,0 c 0,-133.101 -107.899,-241 -241,-241 -133.101,0 -241,107.899 -241,241 0,133.101 107.899,241 241,241 C -107.899,241 0,133.101 0,0 Z"
             style="fill:none;stroke:#000000;stroke-width:30;stroke-linecap:round;stroke-linejoin:round;stroke-miterlimit:10;stroke-dasharray:none;stroke-opacity:1"
             id="path3528" /></g></g></g></g></svg>
