<svg height="512" viewBox="0 0 470 470" width="512" xmlns="http://www.w3.org/2000/svg"><g id="Layer_2" data-name="Layer 2"><g id="line_height"><path d="m235 0c-129.79 0-235 105.21-235 235 0 129.79 105.21 235 235 235 129.79 0 235-105.21 235-235 0-129.79-105.21-235-235-235zm.71 148.34q55.69 0 111.41 0c10 0 16 5.88 15.68 15-.3 8.21-6.11 13.57-15.2 13.62-19.07.09-38.15 0-57.22 0q-27.4 0-54.8 0c-10.1 0-16.66-5.55-16.81-14.07-.15-8.75 6.54-14.54 16.94-14.55zm0 72.39q55.71 0 111.42 0c10.2 0 16.29 6.24 15.61 15.6-.57 7.85-6.36 12.93-15.21 13-19.07.09-38.14 0-57.21 0q-27.41 0-54.81 0c-10.07 0-16.64-5.58-16.77-14.11-.1-8.72 6.59-14.48 17-14.49zm-46.16 81.6c-9.79 10.38-19.85 20.52-30.26 30.28-5.85 5.49-13.49 4.86-19.55-1q-14.1-13.62-27.71-27.72c-6.41-6.62-6.35-16-.29-21.5s14-4.85 20.8 2c.65.65 1.42 1.19 2.74 2.29v-102.63c-.45-.28-3 2-4.08 3.06-5.55 5.37-13.49 5.67-19.14.86-5.43-4.62-7.09-13.65-2.14-19 10.18-11.09 20.86-21.77 31.89-32 5.24-4.88 12.72-4.17 18.12 1 10 9.6 19.82 19.41 29.35 29.48a14.29 14.29 0 0 1 -.13 19.71c-5.41 5.57-13.64 5.63-20.11.13-1.33-1.14-2.63-2.31-4.74-4.18v103.8c2.16-1.84 3.72-3.22 5.34-4.53 6.13-4.92 13.92-4.78 19.2.33s6.07 13.96.74 19.62zm172.45 10.3c-2.32 6.21-7.22 9.06-13.58 9.07q-57.51.12-115 0c-8.51 0-14.69-6.49-14.57-14.45s6.34-14 15-14.07c19.07-.13 38.14 0 57.21 0 18.87 0 37.75-.09 56.62 0 11.26.05 18.06 9.34 14.32 19.45z"/></g></g></svg>