<?xml version="1.0" encoding="iso-8859-1"?>
<!-- Generator: Adobe Illustrator 19.0.0, SVG Export Plug-In . SVG Version: 6.00 Build 0)  -->
<svg version="1.1" id="Capa_1" xmlns="http://www.w3.org/2000/svg" xmlns:xlink="http://www.w3.org/1999/xlink" x="0px" y="0px"
	 viewBox="0 0 512 512" style="enable-background:new 0 0 512 512;" xml:space="preserve">
<g>
	<g>
		<path d="M256,0C114.624,0,0,114.624,0,256s114.624,256,256,256s256-114.624,256-256S397.376,0,256,0z M384,400
			c-149.984,0-272-122.016-272-272c0-8.832,7.168-16,16-16h59.072c8.832,0,16,7.168,16,16c0,27.648,6.016,53.984,17.888,78.24
			c1.888,3.84,2.144,8.224,0.736,12.256c-1.376,4.032-4.32,7.328-8.16,9.184l-23.872,11.52
			c19.872,34.592,48.544,63.296,83.104,83.104l11.52-23.84c1.856-3.84,5.152-6.752,9.184-8.16c4.032-1.376,8.448-1.12,12.256,0.736
			c24.32,11.872,50.624,17.888,78.24,17.888c8.832,0,16,7.168,16,16V384H400C400,392.832,392.832,400,384,400z"/>
	</g>
</g>
<g>
</g>
<g>
</g>
<g>
</g>
<g>
</g>
<g>
</g>
<g>
</g>
<g>
</g>
<g>
</g>
<g>
</g>
<g>
</g>
<g>
</g>
<g>
</g>
<g>
</g>
<g>
</g>
<g>
</g>
</svg>
