<svg height="512" viewBox="0 0 800 800" width="512" xmlns="http://www.w3.org/2000/svg"><circle cx="400" cy="400" r="400" stroke="#000" stroke-miterlimit="10"/><path d="m656 330a15 15 0 0 0 -8.77-13.65l-241-110a15.05 15.05 0 0 0 -12.46 0l-241 110a15 15 0 0 0 0 27.3l52.23 23.83v121.41a35 35 0 0 0 20.79 32l160 71.11a35 35 0 0 0 28.42 0l160-71.11a35 35 0 0 0 20.79-32v-121.41l31-14.14v99.66a15 15 0 0 0 30 0zm-91 158.89a5 5 0 0 1 -3 4.57l-160 71.11a5 5 0 0 1 -4.06 0l-159.94-71.11a5 5 0 0 1 -3-4.57v-107.71l158.77 72.47a15.05 15.05 0 0 0 12.46 0l158.77-72.47zm-165-65.38-204.87-93.51 204.87-93.51 204.88 93.51z" fill="#fff"/></svg>