<svg id="Layer_1" height="512" viewBox="0 0 512 512" width="512" xmlns="http://www.w3.org/2000/svg" data-name="Layer 1"><path d="m386.87 170.85h-61.34v-14.962a30.992 30.992 0 0 0 -30.951-30.948h-77.158a31 31 0 0 0 -30.952 30.953v14.96h-61.339a19.741 19.741 0 0 0 -19.72 19.72v38.079c0 .2.01.391.019.591a2.882 2.882 0 0 0 -.019.29v115.346c0 23.247 20.679 42.181 46.1 42.181h208.981c25.42 0 46.1-18.928 46.1-42.178v-114.762c0-.162-.021-.33-.03-.49.01-.334.03-.65.03-.98v-38.081a19.74 19.74 0 0 0 -19.72-19.719zm-184.4-14.962a14.969 14.969 0 0 1 14.949-14.948h77.161a14.972 14.972 0 0 1 14.95 14.951v14.96h-107.06zm-81.06 34.681a3.764 3.764 0 0 1 3.72-3.719h261.74a3.766 3.766 0 0 1 3.719 3.722v38.079a41.86 41.86 0 0 1 -41.81 41.811h-54.84v-16.24a8 8 0 0 0 -8-8h-59.878a8 8 0 0 0 -8 8v16.236h-54.841a41.855 41.855 0 0 1 -41.811-41.807v-38.082zm156.53 71.649v29.629h-43.879v-29.629zm112.65 82.661c0 14.431-13.5 26.181-30.1 26.181h-208.98c-16.6 0-30.1-11.75-30.1-26.18v-76.361a57.669 57.669 0 0 0 41.81 17.941h54.84v13.387a8.005 8.005 0 0 0 8 8h59.88a8 8 0 0 0 8-8v-13.387h54.84a57.658 57.658 0 0 0 41.809-17.94v76.359zm-134.59-344.879c141.16 0 256 114.84 256 256s-114.84 256-256 256-256-114.84-256-256 114.84-256 256-256z" fill-rule="evenodd"/></svg>