<svg id="Layer_2" enable-background="new 0 0 32 32" height="512" viewBox="0 0 32 32" width="512" xmlns="http://www.w3.org/2000/svg"><g><path d="m20.89001 20.84998h-.77001v-3.31h-1.25v-1.33002h-1.20001v1.33002h-1.07001v-1.64996h-1.19995v1.64996h-1.07001v-1.33002h-1.20002v1.33002h-1.25v3.31h-.77002v1.20001h9.78003zm-1.97003 0h-5.83997v-2.10999h5.83997z"/><path d="m16 1c-8.28003 0-15 6.71997-15 15 0 8.27997 6.71997 15 15 15s15-6.72003 15-15c0-8.28003-6.71997-15-15-15zm9 22.90997h-18v-9.88h18zm0-11.08001h-18v-3.31995h4.20001v-1.42004h1.20001v2.62h1.19995v-1.19996h6v-1.42004h1.20001v2.63h1.20002v-1.20996h3z"/></g></svg>