<svg fill="none" height="512" viewBox="0 0 24 24" width="512" xmlns="http://www.w3.org/2000/svg"><path clip-rule="evenodd" d="m8 2c0-.55228.44772-1 1-1h6c.5523 0 1 .44772 1 1v6c0 .55228-.4477 1-1 1h-2v2h6c.5523 0 1 .4477 1 1v3h2c.5523 0 1 .4477 1 1v6c0 .5523-.4477 1-1 1h-6c-.5523 0-1-.4477-1-1v-6c0-.5523.4477-1 1-1h2v-2h-12v2h2c.55228 0 1 .4477 1 1v6c0 .5523-.44772 1-1 1h-6c-.55228 0-1-.4477-1-1v-6c0-.5523.44772-1 1-1h2v-3c0-.5523.44772-1 1-1h6v-2h-2c-.55228 0-1-.44772-1-1zm6 5v-4h-4v4zm3 10v4h4v-4zm-14 0v4h4v-4z" fill="rgb(0,0,0)" fill-rule="evenodd"/></svg>